<svg height="512pt" viewBox="0 0 511 512" width="512pt" xmlns="http://www.w3.org/2000/svg"><path d="m485.644531 71.949219c-17.683593-21.886719-41.476562-33.9375-67-33.9375h-15.457031l.191406-22.902344c.070313-8.277344-6.582031-15.0390625-14.859375-15.109375-.042969 0-.085937 0-.128906 0-8.214844 0-14.910156 6.625-14.980469 14.859375l-.191406 23.152344h-233.78125l.191406-22.902344c.070313-8.277344-6.582031-15.0390625-14.859375-15.109375-.042969 0-.082031 0-.125 0-8.21875 0-14.914062 6.625-14.980469 14.859375l-.195312 23.152344h-15.71875c-25.519531 0-49.3125 12.050781-66.996094 33.9375-16.929687 20.953125-26.253906 48.625-26.253906 77.914062v250.285157c0 29.289062 9.324219 56.960937 26.253906 77.914062 17.683594 21.882812 41.476563 33.9375 66.996094 33.9375h281.675781.011719.003906c.550782 0 1.089844-.035156 1.628906-.09375.117188-.011719.234376-.039062.355469-.054688.417969-.054687.832031-.121093 1.238281-.210937.140626-.027344.277344-.070313.414063-.105469.382813-.09375.757813-.199218 1.128906-.324218.144531-.050782.292969-.105469.4375-.160157.351563-.128906.695313-.269531 1.03125-.425781.15625-.070312.304688-.144531.457031-.21875.320313-.160156.628907-.332031.933594-.511719.15625-.09375.3125-.183593.464844-.28125.296875-.191406.578125-.394531.863281-.605469.140625-.105468.285157-.207031.421875-.316406.316406-.253906.613282-.523437.90625-.800781.089844-.082031.183594-.160156.269532-.246094.375-.371093.726562-.757812 1.058593-1.167969.015625-.015624.027344-.027343.042969-.042968l121.472656-150.347656c2.15625-2.664063 3.332032-5.988282 3.332032-9.414063v-196.808594c0-29.289062-9.324219-56.960937-26.253907-77.914062zm-391.894531-3.972657h15.46875l-.199219 24.109376c-.070312 8.277343 6.582031 15.039062 14.859375 15.109374h.125c8.21875 0 14.914063-6.625 14.980469-14.859374l.203125-24.359376h233.78125l-.203125 24.109376c-.066406 8.277343 6.585937 15.039062 14.859375 15.109374h.128906c8.214844 0 14.910156-6.625 14.980469-14.859374l.203125-24.359376h15.707031c34.792969 0 63.117188 36.519532 63.28125 81.488282h-451.457031c.167969-44.96875 28.488281-81.488282 63.28125-81.488282zm-63.28125 332.171876v-220.714844h451.457031v152.164062c-17.597656-.101562-47.367187-.273437-71.410156-.410156-.097656 0-.191406 0-.289063 0-13.253906 0-25.71875 5.148438-35.121093 14.511719-9.488281 9.441406-14.703125 22.019531-14.683594 35.398437l.027344 100.933594h-266.699219c-34.894531 0-63.28125-36.734375-63.28125-81.882812zm359.921875-19.074219c-.007813-5.351563 2.074219-10.375 5.855469-14.140625 3.773437-3.757813 8.769531-5.859375 14.101562-5.777344 17.726563.097656 38.5625.21875 55.339844.316406l-75.28125 93.167969zm0 0"/><path d="m297.003906 221.195312c-15.574218 0-30.128906 6.253907-40.804687 16.738282-10.675781-10.484375-25.230469-16.738282-40.804688-16.738282-31.929687 0-58.085937 26.140626-58.308593 58.269532-.160157 23.019531 15.875 47.394531 47.65625 72.449218 21.894531 17.257813 43.550781 28.75 44.460937 29.230469 2.1875 1.15625 4.589844 1.730469 6.996094 1.730469 2.414062 0 4.832031-.582031 7.03125-1.75.902343-.480469 22.40625-11.976562 44.214843-29.226562 31.601563-25.003907 47.707032-49.304688 47.867188-72.226563.105469-15.527344-5.878906-30.164063-16.855469-41.21875-11.054687-11.128906-25.773437-17.257813-41.453125-17.257813zm-7.832031 106.945313c-12.632813 10.03125-25.441406 18.0625-33.050781 22.558594-26.421875-15.394531-69.230469-47.195313-69.066406-71.027344.105468-15.71875 12.820312-28.507813 28.339843-28.507813 11.953125 0 22.671875 7.605469 26.679688 18.933594 2.113281 5.984375 7.777343 9.988282 14.125 9.988282 6.347656 0 12.011719-4.003907 14.128906-9.988282 4.003906-11.324218 14.722656-18.933594 26.675781-18.933594 7.636719 0 14.804688 2.984376 20.1875 8.40625 5.308594 5.34375 8.207032 12.410157 8.152344 19.894532-.050781 7.496094-4.820312 23.785156-36.171875 48.675781zm0 0"/></svg>